# xmcd
#
# Track frame offsets:
#	150
#	10575
#	21531
#	29439
#	32592
#	54422
#	69013
#	80181
#	110439
#	129710
#	142289
#	167534
#	206979
#	214756
#	244170
#	249274
#	259870
#	267621
#	283679
#
# Disc length: 4193 seconds
#
# Revision: 1
# Processed by: cddbd v1.5.1PL0 Copyright (c) Steve Scherf et al.
# Submitted via: audiograbber 1.83.01
#
DISCID=1f105f13
DTITLE=Lou Reed - The Raven
DYEAR=1900
DGENRE=
TTITLE0=The Conqueror Worm
TTITLE1=The Tell-Tale Heart Pt. 1
TTITLE2=The Tell-Tale Heart Pt. 2
TTITLE3=Old Poe
TTITLE4=Prologue(Ligiea)
TTITLE5=Imp Of The Perverse
TTITLE6=The Valley Of Unrest
TTITLE7=The Cask
TTITLE8=The City In The Sea-Shadow
TTITLE9=Guilty - Spoken
TTITLE10=A Wild Being From Birth
TTITLE11=The Fall Of The House Of Usher
TTITLE12=Annabel Lee-The Bells
TTITLE13=The Raven
TTITLE14=Every Frog Has His Day
TTITLE15=Tripitena's Speech
TTITLE16=Courtly Orangutans
TTITLE17=The Bed
TTITLE18=Guardian Angel
EXTD=
EXTT0=
EXTT1=
EXTT2=
EXTT3=
EXTT4=
EXTT5=
EXTT6=
EXTT7=
EXTT8=
EXTT9=
EXTT10=
EXTT11=
EXTT12=
EXTT13=
EXTT14=
EXTT15=
EXTT16=
EXTT17=
EXTT18=
PLAYORDER=
